# xmcd CD database file
#
# Track frame offsets:
#	150
#	47741
#	67260
#	80356
#	86716
#	93887
#	104655
#	108962
#	110473
#	113963
#	119550
#	123242
#	125004
#	132298
#	137355
#	141708
#	147003
#	149768
#
# Disc length: 2132 seconds
#
# Revision: 0
# Processed by: cddbd v1.5.2PL0 Copyright (c) Steve Scherf et al.
# Submitted via: CDex 1.70beta2
#
DISCID=19085212
DTITLE=Friederike Mayröcker - °brütt° oder °Die seufzenden Gärten°
DYEAR=1998
DGENRE=Blues
TTITLE0=Kap. 13.3
TTITLE1=comicstrip, eine oper
TTITLE2=°Hiobs-Post° oder °die 19 Auftritte°
TTITLE3=ein überaus schönes und blaues Manöver - Lilien auf die Brust gemalt -für Thomas Kling
TTITLE4=Deinzendorf - °grüne Montage° oder °wo habe ich diese weißen Augen schon einmal gesehen°
TTITLE5=etwas Kinder - oder - mehr ist nicht zu sagen - oder °Versuch Inger Christensen und Andrea Zanzotto miteinander verknüpfend°
TTITLE6=Manchmal bei irgendwelchen zufälligen Bewegungen
TTITLE7=Durch viele Masken
TTITLE8=Der Aufruf
TTITLE9=Opfer des Frühlings
TTITLE10=Zeltleinen
TTITLE11=Palmsonntag
TTITLE12=die Vogel Kutsche, für Christa Kühnhold
TTITLE13=beim Anblick eines jungen Kindes in der Straße
TTITLE14=zugeschüttetes Gesicht
TTITLE15=Proem auf den Änderungsschneider Aslan Gültekin
TTITLE16=eines Lebensabschnettes Bestandsaufnahme
TTITLE17=lieber in Gedanken reisen, Hokusei
EXTD=YEAR: 1998
EXTT0=
EXTT1=
EXTT2=
EXTT3=
EXTT4=
EXTT5=
EXTT6=
EXTT7=
EXTT8=
EXTT9=
EXTT10=
EXTT11=
EXTT12=
EXTT13=
EXTT14=
EXTT15=
EXTT16=
EXTT17=
PLAYORDER=
